<mxfile host="app.diagrams.net" modified="2023-11-14T02:25:53.098Z" agent="Mozilla/5.0 (Windows NT 10.0; Win64; x64) AppleWebKit/537.36 (KHTML, like Gecko) Chrome/119.0.0.0 Safari/537.36" etag="ZY-2mYTgmIoUCBKqKJZs" version="22.1.0" type="google">
  <diagram id="C5RBs43oDa-KdzZeNtuy" name="Page-1">
    <mxGraphModel grid="1" page="1" gridSize="10" guides="1" tooltips="1" connect="1" arrows="1" fold="1" pageScale="1" pageWidth="827" pageHeight="1169" math="0" shadow="0">
      <root>
        <mxCell id="WIyWlLk6GJQsqaUBKTNV-0" />
        <mxCell id="WIyWlLk6GJQsqaUBKTNV-1" parent="WIyWlLk6GJQsqaUBKTNV-0" />
        <mxCell id="FLrvOHl7-SMKHk92TGxG-7" value="&lt;div style=&quot;text-align: -webkit-left;&quot;&gt;cantidad_de_ofertas_laborales_por_dia&lt;/div&gt;&lt;div style=&quot;text-align: -webkit-left;&quot;&gt;cantidad_de_ofertas_por_region&lt;br&gt;&lt;/div&gt;&lt;div style=&quot;text-align: -webkit-left;&quot;&gt;cantidad_de_ofertas_por_tipo_empresa&lt;/div&gt;" style="shape=cube;whiteSpace=wrap;html=1;boundedLbl=1;backgroundOutline=1;darkOpacity=0.05;darkOpacity2=0.1;size=10;" vertex="1" parent="WIyWlLk6GJQsqaUBKTNV-1">
          <mxGeometry x="284" y="430" width="260" height="210" as="geometry" />
        </mxCell>
        <mxCell id="FLrvOHl7-SMKHk92TGxG-8" value="" style="endArrow=none;html=1;rounded=0;entryX=0.993;entryY=0.216;entryDx=0;entryDy=0;entryPerimeter=0;exitX=-0.004;exitY=0.219;exitDx=0;exitDy=0;exitPerimeter=0;" edge="1" parent="WIyWlLk6GJQsqaUBKTNV-1" source="FLrvOHl7-SMKHk92TGxG-7" target="FLrvOHl7-SMKHk92TGxG-7">
          <mxGeometry width="50" height="50" relative="1" as="geometry">
            <mxPoint x="310" y="475" as="sourcePoint" />
            <mxPoint x="550" y="405" as="targetPoint" />
          </mxGeometry>
        </mxCell>
        <mxCell id="FLrvOHl7-SMKHk92TGxG-10" value="Hecho_Ofertas_laborales" style="text;html=1;strokeColor=none;fillColor=none;align=center;verticalAlign=middle;whiteSpace=wrap;rounded=0;" vertex="1" parent="WIyWlLk6GJQsqaUBKTNV-1">
          <mxGeometry x="330" y="440" width="180" height="30" as="geometry" />
        </mxCell>
        <mxCell id="FLrvOHl7-SMKHk92TGxG-15" value="Region" style="swimlane;fontStyle=0;childLayout=stackLayout;horizontal=1;startSize=30;horizontalStack=0;resizeParent=1;resizeParentMax=0;resizeLast=0;collapsible=1;marginBottom=0;whiteSpace=wrap;html=1;" vertex="1" parent="WIyWlLk6GJQsqaUBKTNV-1">
          <mxGeometry x="40" y="320" width="140" height="90" as="geometry" />
        </mxCell>
        <mxCell id="FLrvOHl7-SMKHk92TGxG-16" value="Provincia" style="text;strokeColor=none;fillColor=none;align=left;verticalAlign=middle;spacingLeft=4;spacingRight=4;overflow=hidden;points=[[0,0.5],[1,0.5]];portConstraint=eastwest;rotatable=0;whiteSpace=wrap;html=1;" vertex="1" parent="FLrvOHl7-SMKHk92TGxG-15">
          <mxGeometry y="30" width="140" height="30" as="geometry" />
        </mxCell>
        <mxCell id="FLrvOHl7-SMKHk92TGxG-17" value="Ciudad" style="text;strokeColor=none;fillColor=none;align=left;verticalAlign=middle;spacingLeft=4;spacingRight=4;overflow=hidden;points=[[0,0.5],[1,0.5]];portConstraint=eastwest;rotatable=0;whiteSpace=wrap;html=1;" vertex="1" parent="FLrvOHl7-SMKHk92TGxG-15">
          <mxGeometry y="60" width="140" height="30" as="geometry" />
        </mxCell>
        <mxCell id="FLrvOHl7-SMKHk92TGxG-19" value="Tiempo" style="swimlane;fontStyle=0;childLayout=stackLayout;horizontal=1;startSize=30;horizontalStack=0;resizeParent=1;resizeParentMax=0;resizeLast=0;collapsible=1;marginBottom=0;whiteSpace=wrap;html=1;" vertex="1" parent="WIyWlLk6GJQsqaUBKTNV-1">
          <mxGeometry x="40" y="155" width="140" height="90" as="geometry" />
        </mxCell>
        <mxCell id="FLrvOHl7-SMKHk92TGxG-20" value="AÃ±o" style="text;strokeColor=none;fillColor=none;align=left;verticalAlign=middle;spacingLeft=4;spacingRight=4;overflow=hidden;points=[[0,0.5],[1,0.5]];portConstraint=eastwest;rotatable=0;whiteSpace=wrap;html=1;" vertex="1" parent="FLrvOHl7-SMKHk92TGxG-19">
          <mxGeometry y="30" width="140" height="30" as="geometry" />
        </mxCell>
        <mxCell id="FLrvOHl7-SMKHk92TGxG-21" value="Mes" style="text;strokeColor=none;fillColor=none;align=left;verticalAlign=middle;spacingLeft=4;spacingRight=4;overflow=hidden;points=[[0,0.5],[1,0.5]];portConstraint=eastwest;rotatable=0;whiteSpace=wrap;html=1;" vertex="1" parent="FLrvOHl7-SMKHk92TGxG-19">
          <mxGeometry y="60" width="140" height="30" as="geometry" />
        </mxCell>
        <mxCell id="FLrvOHl7-SMKHk92TGxG-48" style="edgeStyle=orthogonalEdgeStyle;rounded=0;orthogonalLoop=1;jettySize=auto;html=1;entryX=0.331;entryY=-0.005;entryDx=0;entryDy=0;entryPerimeter=0;" edge="1" parent="WIyWlLk6GJQsqaUBKTNV-1" source="FLrvOHl7-SMKHk92TGxG-23" target="FLrvOHl7-SMKHk92TGxG-7">
          <mxGeometry relative="1" as="geometry">
            <mxPoint x="370" y="420" as="targetPoint" />
          </mxGeometry>
        </mxCell>
        <mxCell id="FLrvOHl7-SMKHk92TGxG-23" value="Empresa" style="swimlane;fontStyle=0;childLayout=stackLayout;horizontal=1;startSize=30;horizontalStack=0;resizeParent=1;resizeParentMax=0;resizeLast=0;collapsible=1;marginBottom=0;whiteSpace=wrap;html=1;" vertex="1" parent="WIyWlLk6GJQsqaUBKTNV-1">
          <mxGeometry x="200" y="40" width="140" height="60" as="geometry" />
        </mxCell>
        <mxCell id="FLrvOHl7-SMKHk92TGxG-24" value="Tipo_empresa" style="text;strokeColor=none;fillColor=none;align=left;verticalAlign=middle;spacingLeft=4;spacingRight=4;overflow=hidden;points=[[0,0.5],[1,0.5]];portConstraint=eastwest;rotatable=0;whiteSpace=wrap;html=1;" vertex="1" parent="FLrvOHl7-SMKHk92TGxG-23">
          <mxGeometry y="30" width="140" height="30" as="geometry" />
        </mxCell>
        <mxCell id="FLrvOHl7-SMKHk92TGxG-27" value="Especialidad" style="swimlane;fontStyle=0;childLayout=stackLayout;horizontal=1;startSize=30;horizontalStack=0;resizeParent=1;resizeParentMax=0;resizeLast=0;collapsible=1;marginBottom=0;whiteSpace=wrap;html=1;" vertex="1" parent="WIyWlLk6GJQsqaUBKTNV-1">
          <mxGeometry x="400" y="40" width="140" height="60" as="geometry" />
        </mxCell>
        <mxCell id="FLrvOHl7-SMKHk92TGxG-28" value="Nombre especialidad" style="text;strokeColor=none;fillColor=none;align=left;verticalAlign=middle;spacingLeft=4;spacingRight=4;overflow=hidden;points=[[0,0.5],[1,0.5]];portConstraint=eastwest;rotatable=0;whiteSpace=wrap;html=1;" vertex="1" parent="FLrvOHl7-SMKHk92TGxG-27">
          <mxGeometry y="30" width="140" height="30" as="geometry" />
        </mxCell>
        <mxCell id="FLrvOHl7-SMKHk92TGxG-31" value="Puesto&lt;span style=&quot;white-space: pre;&quot;&gt;&#x9;&lt;/span&gt;" style="swimlane;fontStyle=0;childLayout=stackLayout;horizontal=1;startSize=30;horizontalStack=0;resizeParent=1;resizeParentMax=0;resizeLast=0;collapsible=1;marginBottom=0;whiteSpace=wrap;html=1;" vertex="1" parent="WIyWlLk6GJQsqaUBKTNV-1">
          <mxGeometry x="600" y="40" width="140" height="60" as="geometry" />
        </mxCell>
        <mxCell id="FLrvOHl7-SMKHk92TGxG-32" value="Nombre puesto" style="text;strokeColor=none;fillColor=none;align=left;verticalAlign=middle;spacingLeft=4;spacingRight=4;overflow=hidden;points=[[0,0.5],[1,0.5]];portConstraint=eastwest;rotatable=0;whiteSpace=wrap;html=1;" vertex="1" parent="FLrvOHl7-SMKHk92TGxG-31">
          <mxGeometry y="30" width="140" height="30" as="geometry" />
        </mxCell>
        <mxCell id="FLrvOHl7-SMKHk92TGxG-39" value="Habilidad Blanda" style="swimlane;fontStyle=0;childLayout=stackLayout;horizontal=1;startSize=30;horizontalStack=0;resizeParent=1;resizeParentMax=0;resizeLast=0;collapsible=1;marginBottom=0;whiteSpace=wrap;html=1;" vertex="1" parent="WIyWlLk6GJQsqaUBKTNV-1">
          <mxGeometry x="40" y="640" width="140" height="60" as="geometry" />
        </mxCell>
        <mxCell id="FLrvOHl7-SMKHk92TGxG-40" value="Nombre habilidad" style="text;strokeColor=none;fillColor=none;align=left;verticalAlign=middle;spacingLeft=4;spacingRight=4;overflow=hidden;points=[[0,0.5],[1,0.5]];portConstraint=eastwest;rotatable=0;whiteSpace=wrap;html=1;" vertex="1" parent="FLrvOHl7-SMKHk92TGxG-39">
          <mxGeometry y="30" width="140" height="30" as="geometry" />
        </mxCell>
        <mxCell id="FLrvOHl7-SMKHk92TGxG-44" value="Habilidad Tecnica" style="swimlane;fontStyle=0;childLayout=stackLayout;horizontal=1;startSize=30;horizontalStack=0;resizeParent=1;resizeParentMax=0;resizeLast=0;collapsible=1;marginBottom=0;whiteSpace=wrap;html=1;" vertex="1" parent="WIyWlLk6GJQsqaUBKTNV-1">
          <mxGeometry x="40" y="520" width="140" height="60" as="geometry" />
        </mxCell>
        <mxCell id="FLrvOHl7-SMKHk92TGxG-45" value="nombre habilidad tecnica" style="text;strokeColor=none;fillColor=none;align=left;verticalAlign=middle;spacingLeft=4;spacingRight=4;overflow=hidden;points=[[0,0.5],[1,0.5]];portConstraint=eastwest;rotatable=0;whiteSpace=wrap;html=1;" vertex="1" parent="FLrvOHl7-SMKHk92TGxG-44">
          <mxGeometry y="30" width="140" height="30" as="geometry" />
        </mxCell>
        <mxCell id="FLrvOHl7-SMKHk92TGxG-46" style="edgeStyle=orthogonalEdgeStyle;rounded=0;orthogonalLoop=1;jettySize=auto;html=1;entryX=0;entryY=0;entryDx=0;entryDy=100;entryPerimeter=0;" edge="1" parent="WIyWlLk6GJQsqaUBKTNV-1" source="FLrvOHl7-SMKHk92TGxG-15" target="FLrvOHl7-SMKHk92TGxG-7">
          <mxGeometry relative="1" as="geometry" />
        </mxCell>
        <mxCell id="FLrvOHl7-SMKHk92TGxG-47" style="edgeStyle=orthogonalEdgeStyle;rounded=0;orthogonalLoop=1;jettySize=auto;html=1;entryX=0.096;entryY=-0.01;entryDx=0;entryDy=0;entryPerimeter=0;" edge="1" parent="WIyWlLk6GJQsqaUBKTNV-1" source="FLrvOHl7-SMKHk92TGxG-19" target="FLrvOHl7-SMKHk92TGxG-7">
          <mxGeometry relative="1" as="geometry">
            <Array as="points">
              <mxPoint x="260" y="200" />
              <mxPoint x="260" y="428" />
            </Array>
          </mxGeometry>
        </mxCell>
        <mxCell id="FLrvOHl7-SMKHk92TGxG-49" style="edgeStyle=orthogonalEdgeStyle;rounded=0;orthogonalLoop=1;jettySize=auto;html=1;entryX=0.635;entryY=-0.019;entryDx=0;entryDy=0;entryPerimeter=0;" edge="1" parent="WIyWlLk6GJQsqaUBKTNV-1" source="FLrvOHl7-SMKHk92TGxG-27" target="FLrvOHl7-SMKHk92TGxG-7">
          <mxGeometry relative="1" as="geometry" />
        </mxCell>
        <mxCell id="FLrvOHl7-SMKHk92TGxG-50" style="edgeStyle=orthogonalEdgeStyle;rounded=0;orthogonalLoop=1;jettySize=auto;html=1;entryX=1;entryY=0.562;entryDx=0;entryDy=0;entryPerimeter=0;" edge="1" parent="WIyWlLk6GJQsqaUBKTNV-1" source="FLrvOHl7-SMKHk92TGxG-31" target="FLrvOHl7-SMKHk92TGxG-7">
          <mxGeometry relative="1" as="geometry" />
        </mxCell>
        <mxCell id="FLrvOHl7-SMKHk92TGxG-51" style="edgeStyle=orthogonalEdgeStyle;rounded=0;orthogonalLoop=1;jettySize=auto;html=1;entryX=0.023;entryY=0.81;entryDx=0;entryDy=0;entryPerimeter=0;" edge="1" parent="WIyWlLk6GJQsqaUBKTNV-1" source="FLrvOHl7-SMKHk92TGxG-44" target="FLrvOHl7-SMKHk92TGxG-7">
          <mxGeometry relative="1" as="geometry" />
        </mxCell>
        <mxCell id="FLrvOHl7-SMKHk92TGxG-52" style="edgeStyle=orthogonalEdgeStyle;rounded=0;orthogonalLoop=1;jettySize=auto;html=1;entryX=0;entryY=0;entryDx=135;entryDy=210;entryPerimeter=0;" edge="1" parent="WIyWlLk6GJQsqaUBKTNV-1" source="FLrvOHl7-SMKHk92TGxG-39" target="FLrvOHl7-SMKHk92TGxG-7">
          <mxGeometry relative="1" as="geometry" />
        </mxCell>
      </root>
    </mxGraphModel>
  </diagram>
</mxfile>
